<svg xmlns="http://www.w3.org/2000/svg" fill-rule="evenodd" stroke-linejoin="round" stroke-miterlimit="2" clip-rule="evenodd" viewBox="0 0 3018 2502">
    <style>
    .bg {
      	fill: black;
	}
	.fg{
		fill: white;
	}
    @media (prefers-color-scheme: dark) {
      .bg {
        fill: white;
      }
	  .fg{
		fill: black;
	  }
    }
  </style>
  <path class="bg" d="M0 636.628h3017.661v1865.214H.001z"/>
  <path class="bg" fill-rule="nonzero" d="M3017.65 0H1975.12v636.629h288.113V348.516h754.417V0z"/>
  <path class="fg" fill-rule="nonzero" d="M1508.82 2035.531c-257.53 0-466.296-208.78-466.296-466.292 0-257.55 208.767-466.317 466.296-466.317 257.538 0 466.3 208.767 466.3 466.317 0 257.513-208.762 466.292-466.3 466.292m466.3-1398.905V976.15c-128.341-101.05-290.279-161.342-466.3-161.342-416.642 0-754.421 337.767-754.421 754.43 0 416.642 337.779 754.417 754.421 754.417 416.65 0 754.417-337.775 754.417-754.417V636.626H1975.12z"/>
</svg>

<svg width="100%" height="100%" viewBox="0 0 4267 4267" version="1.1" xmlns="http://www.w3.org/2000/svg" xmlns:xlink="http://www.w3.org/1999/xlink" xml:space="preserve" xmlns:serif="http://www.serif.com/" style="fill-rule:evenodd;clip-rule:evenodd;stroke-linejoin:round;stroke-miterlimit:2;">
  <style>
    .f{
      fill: white;
    }
    @media (prefers-color-scheme: dark) {
      .f{
        fill: black;
      }
    }
  </style>
    <g transform="matrix(4.84171,0,0,4.84171,-343.783,21.3232)">
       <path class="f" d="M496.436,776L104.603,776C104.603,776 498.908,91.454 500,92.406L499.793,323.733C503.643,323.545 507.517,323.45 511.413,323.45C515.566,323.45 519.693,323.558 523.793,323.771L524,92.837L918.636,776L526.804,776C521.784,776.321 516.721,776.483 511.62,776.483C506.519,776.483 501.456,776.321 496.436,776ZM499.62,323.844C384.942,330.082 293.743,425.172 293.743,541.395C293.743,661.645 391.371,759.272 511.62,759.272C631.869,759.272 729.497,661.645 729.497,541.395C729.497,425.172 638.298,330.082 523.62,323.844L523.62,514.583C534.172,519.207 541.54,529.745 541.54,542.004C541.54,558.533 528.151,571.919 511.625,571.919C495.098,571.919 481.7,558.533 481.7,542.004C481.7,529.748 489.07,519.212 499.62,514.586L499.62,323.844ZM523.62,56.862C523.62,63.489 518.246,68.863 511.619,68.863C504.994,68.863 499.62,63.489 499.62,56.862C499.62,50.236 504.994,44.863 511.619,44.863C518.246,44.863 523.62,50.236 523.62,56.862Z"/>
    </g>
</svg>

